<svg xmlns="http://www.w3.org/2000/svg" viewBox="0 0 128 128" role="img" aria-label="Crewtopus">
  <defs>
    <linearGradient id="g" x1="0%" y1="0%" x2="100%" y2="100%">
      <stop offset="0%" stop-color="#6366f1"/>
      <stop offset="50%" stop-color="#22d3ee"/>
      <stop offset="100%" stop-color="#38bdf8"/>
    </linearGradient>
  </defs>
  <rect width="128" height="128" rx="28" fill="#0b1220"/>
  <circle cx="64" cy="48" r="28" fill="url(#g)"/>
  <circle cx="54" cy="44" r="5" fill="#0b1220"/>
  <circle cx="74" cy="44" r="5" fill="#0b1220"/>
  <circle cx="55.5" cy="43" r="1.8" fill="#e0f2fe"/>
  <circle cx="75.5" cy="43" r="1.8" fill="#e0f2fe"/>
  <!-- tentacles as crew arms -->
  <path d="M40 68c-10 8-16 18-14 28 8-2 14-8 18-16" fill="none" stroke="url(#g)" stroke-width="8" stroke-linecap="round"/>
  <path d="M50 72c-4 12-2 24 6 30 2-8 2-18 0-28" fill="none" stroke="url(#g)" stroke-width="8" stroke-linecap="round"/>
  <path d="M64 74c0 12 2 24 0 32 6-6 8-18 6-32" fill="none" stroke="url(#g)" stroke-width="8" stroke-linecap="round"/>
  <path d="M78 72c4 12 2 24-4 30 6-8 10-18 8-30" fill="none" stroke="url(#g)" stroke-width="8" stroke-linecap="round"/>
  <path d="M88 68c10 8 16 18 14 28-8-2-14-8-18-16" fill="none" stroke="url(#g)" stroke-width="8" stroke-linecap="round"/>
  <!-- tiny board dots -->
  <rect x="52" y="54" width="6" height="6" rx="1.5" fill="#0b1220" opacity=".55"/>
  <rect x="61" y="54" width="6" height="6" rx="1.5" fill="#0b1220" opacity=".55"/>
  <rect x="70" y="54" width="6" height="6" rx="1.5" fill="#0b1220" opacity=".55"/>
</svg>
